<svg width="32" height="32" viewBox="0 0 32 32" fill="none" xmlns="http://www.w3.org/2000/svg">
<rect width="32" height="32" rx="4" fill="#AA3B25"/>
<path fill-rule="evenodd" clip-rule="evenodd" d="M3.83789 12.7078L3.53652 14.6131H8.95135L9.25272 12.7078H3.83789ZM28.4821 19.2926H26.3612L26.909 15.3485H29.0299L28.4821 19.2926ZM24.3039 19.2926H22.183L22.7307 15.3485H24.8519L24.3039 19.2926ZM16.2063 15.3485L15.7201 19.2926H17.7925L18.145 16.8191H21.1868C22.2744 16.8191 22.1895 15.3483 22.1895 15.3483L16.2063 15.3485ZM14.5686 15.3483H9.42125C9.43634 16.0837 9.57007 16.8191 10.4573 16.8191H13.3989L13.3572 17.7885H9.35312L9.05161 19.2593H14.4666C14.9514 19.2593 15.5196 18.4235 15.5196 17.0196C15.5196 15.9829 15.2857 15.3483 14.5686 15.3483ZM22.7577 14.6464L22.9917 12.7078H27.7711C29.5273 12.7078 29.075 14.6464 29.075 14.6464H22.7577ZM9.45442 14.6464C9.45442 14.6464 9.63999 12.7078 10.992 12.7078H21.3873C21.3873 12.7078 21.8034 12.7412 22.1044 13.209C22.4053 13.677 22.2899 14.6464 22.2899 14.6464H9.45442ZM8.61712 16.8861L8.91848 15.4154H3.50365L2.86865 19.2258H3.00865L3.00193 19.2595H8.41691L8.71827 17.7887H4.86255L5.01301 16.8861H8.61712Z" fill="white"/>
</svg>
