<svg width="120" height="15" viewBox="0 0 120 15" fill="none" xmlns="http://www.w3.org/2000/svg">
<g clip-path="url(#clip0_723_13164)">
<path d="M115.074 0H103.801V14.4642H115.536C118.288 14.4642 119.998 12.8358 119.998 10.2142V4.43252C119.998 2.22527 118.475 0 115.072 0L115.074 0ZM115.7 3.65998V11.007H108.105V3.43475H115.7V3.65998Z" fill="white"/>
<path d="M90.9481 11.0114V10.7861V8.99555V8.77032H91.1733H101.378V5.61936H91.1733H90.9481V5.39414V3.70942V3.48419H91.1733L102.002 3.45716L102.005 0.00439453H86.6484V14.4686H102.014V11.0114H91.1733H90.9481Z" fill="white"/>
<path d="M78.2402 6.9416L78.3934 6.78844L85.1818 0.0090332H79.7357L74.605 5.53391L74.5374 5.60598H74.4383H73.3955H73.1703V5.38076V0.0090332H68.8684V14.4733H73.1703V8.99118V8.76595H73.3955H74.5667H74.6681L74.7356 8.84028L79.7785 14.4733H85.2493L78.3889 7.10151L78.2402 6.9416Z" fill="white"/>
<path d="M13.9052 6.42785L4.83291 4.97062L4.64372 4.93909V3.22284H4.86895L12.0267 3.22059H12.252V3.44581V4.61476H16.5809V3.16653C16.5786 0.42774 14.5493 0.0178223 13.3398 0.0178223H4.08966C1.87115 0.0178223 0.549048 1.16424 0.549048 3.08545V5.42108C0.549048 6.79047 1.50853 7.72517 3.18423 7.98194L12.0515 9.38511L12.2407 9.41439V9.60584L12.2497 11.0473V11.2748H12.0245L4.86895 11.2793H4.64372V11.0541V9.8108H0.540039V11.2027C0.540039 12.1892 0.877883 14.4866 4.01083 14.4866H13.0786C15.475 14.4866 16.5899 13.5046 16.5899 11.3942V9.27926C16.5899 7.5067 15.2025 6.64633 13.9029 6.4301L13.9052 6.42785Z" fill="white"/>
<path d="M18.178 3.68242H23.8425H24.0677V3.90764V14.4799H28.3719V3.90764V3.68242H28.5971H34.2661V0.0134277H18.178V3.68242Z" fill="white"/>
<path d="M62.9112 3.45946V5.71401H67.0825V3.3964C67.0825 1.31528 65.6748 0.0224609 63.4067 0.0224609H54.8998C52.2353 0.0224609 50.9966 1.24771 50.9966 3.87614V10.4438C50.9966 13.2795 52.1678 14.4889 54.9133 14.4889H63.409C66.6658 14.4889 67.0847 12.7074 67.0847 11.1533V8.71406H62.9135V10.838V11.0632H62.6882L55.5395 11.0677H55.3142V10.8425V3.6892V3.46397H62.9157L62.9112 3.45946Z" fill="white"/>
<path d="M50.5464 14.4757L44.2693 0.0114746H37.9246L31.5889 14.4757H35.8119L36.8863 12.0815H45.017L46.1319 14.4757H50.5464ZM41.5845 3.67821L43.8031 8.93957H38.1205L40.339 3.67821H41.5823H41.5845Z" fill="white"/>
</g>
<defs>
<clipPath id="clip0_723_13164">
<rect width="120" height="14.4868" fill="white"/>
</clipPath>
</defs>
</svg>
